<?xml version="1.0" standalone="no"?>
<!DOCTYPE svg PUBLIC "-//W3C//DTD SVG 1.1//EN" "http://www.w3.org/Graphics/SVG/1.1/DTD/svg11.dtd" >
<svg xmlns="http://www.w3.org/2000/svg">
<metadata></metadata>
<defs>
<font id="a_day_without_sunregular" horiz-adv-x="471" >
<font-face units-per-em="2048" ascent="1638" descent="-410" />
<missing-glyph horiz-adv-x="284" />
<glyph horiz-adv-x="0" />
<glyph horiz-adv-x="682" />
<glyph unicode=" "  horiz-adv-x="284" />
<glyph unicode="&#x09;" horiz-adv-x="284" />
<glyph unicode="&#xa0;" horiz-adv-x="284" />
<glyph unicode="!" horiz-adv-x="245" d="M86 96q0 -36 12 -73q10 -43 27 -43q10 0 12 2q6 31 6 84v12q-2 2 -2 12v21q-6 12 -26 12q-24 0 -27 -12v-2v-7q-2 -2 -2 -6zM92 1497q8 -133 8 -311v-135v-93q-2 -25 -2 -59v-37v-28q-2 -35 -2 -107v-113v-112q0 -80 2 -123q10 -17 25 -17h6q0 -2 2 -2h2v7q4 0 6 2h4h2 q-2 37 -2 106v103v110q7 191 7 354q0 19 2 27v25v49q0 152 -11 346q-6 14 -26 14t-23 -6z" />
<glyph unicode="#" horiz-adv-x="690" d="M29 555q1 -2 2 -6t2 -6q0 -5 4 -13h39h41q14 -2 47 -2v-24q-1 -13 -4 -41t-4 -43t-4.5 -43t-4.5 -41l-18 -162q-11 -97 -20 -143q1 -18 10.5 -25.5t27.5 -9.5q6 26 19 154q3 77 10 114v2q4 25 19 148l6 47q5 40 6 47v20h29q18 0 24 2h164v-26q-13 -62 -25 -213 q-15 -185 -30 -262q2 -29 37 -33q6 26 12 74q8 81 12 147q0 19 4 47l12 92q10 73 11 88l8 66v20q46 -4 63 -4q40 0 109 -6v15q-1 16 -11.5 20t-37.5 4h-17q-6 -2 -20 -2q-10 -2 -35 -2h-43v25l8 92l13 139q3 65 12 123v20h86q30 0 51 -6q20 -4 25 -4v8q0 4 2 4q0 14 -8 33 v-10q-12 6 -41 6h-15q-6 -2 -18 -2q-10 -2 -35 -2h-39v25l16 94v2q2 12 7 47t7.5 50.5t6.5 47t5.5 52.5t3 49.5t1.5 54.5v24q0 17 -2 19h2q-13 18 -22 18q-9 -3 -15 -39q-19 -97 -30 -215l-13 -118q-1 -7 -2 -22.5t-2 -22.5l-6 -48v-18q-33 -2 -88 -2h-57h-29q-27 0 -41 2 v25l14 88v2q33 214 33 323q0 19 -5 28.5t-24 20.5q-11 -11 -14 -49q-12 -77 -12 -133l-6 -41q-13 -92 -21 -166q-4 -55 -10 -82v-16h-148q3 -6 3 -12q0 -5 4 -13h43h43q16 -2 49 -2v-24q-9 -70 -12 -142v-4l-7 -106q-2 -44 -10 -103v-20h-147zM213 555v25l14 176q0 16 2 26 t2 27v2q1 12 4.5 33.5t4.5 32.5l6 59v18h26q15 0 21 2h170v-24l-12 -141q-10 -116 -11 -142q0 -28 -4 -74v-20q-31 -2 -88 -2h-57h-25q-16 0 -24 2h-29z" />
<glyph unicode="&#x26;" horiz-adv-x="512" d="M25 424q0 -257 71 -371q50 -84 123 -84q52 0 87 14.5t63 63.5q25 45 39 154q8 81 8 166v16q10 -10 39 -10q31 0 39 8v4q22 28 28 46.5t6 55.5q0 19 -8.5 36.5t-21.5 17.5q-9 0 -9 2q0 -3 3 -6v-7v-10q0 -54 -11 -76q-11 -20 -39 -20q-26 0 -63 63q-12 24 -26 33.5 t-38 9.5q-32 0 -55 -26q-24 -27 -24 -113q0 8 10 8q7 0 11.5 1.5t7.5 6.5t4.5 8t3.5 11t3 10v2q10 30 17 37q8 8 20 8q9 0 17 -2q12 -3 28 -32l13 -21v-12q0 -95 -1 -137.5t-11.5 -109.5t-32.5 -108v-2q-21 -33 -42 -43t-51 -10q-21 0 -48 19t-50 55q-63 88 -63 235v58 q-2 14 -2 39v39q0 161 53 262q52 86 108 86l13 2q26 0 26 18q0 7 -5 12t-8.5 6.5t-14.5 6.5h-17q-67 0 -104 114q-27 82 -27 164q0 152 33 234q30 86 102 86q57 0 84 -90q21 -70 21 -183v-4q-4 -22 3.5 -36.5t20.5 -14.5q27 0 27 29q0 344 -162 344q-79 0 -131 -115 q-45 -99 -45 -239q0 -167 86 -299v-23q-54 -65 -81 -156t-27 -231z" />
<glyph unicode="0" horiz-adv-x="483" d="M29 377q0 -223 63 -330q55 -96 135 -96q138 0 185 184q32 125 32 416v237q0 245 -8 445v-2q-36 268 -198 268q-92 0 -150 -113q-59 -115 -59 -346v-663zM72 555v137q0 80 2 119q0 76 2 115q0 80 2 127q3 202 51 307q41 90 109 90q73 0 114 -94v-2q43 -120 43 -303v-150 v-215q0 -166 2 -252q-3 -196 -49 -317q-22 -58 -51 -89.5t-61 -31.5q-98 0 -138 190q-26 113 -26 369z" />
<glyph unicode="1" horiz-adv-x="407" d="M59 1085q0 -10 4 -21t11 -11q8 0 12 4l166 286v-12q-8 -133 -8 -332v-61q0 -21 2 -31v-35v-98v-65q0 -50 2 -70v-291q4 -82 4 -123v-121v-98h-2q0 -2 10 -12q8 -8 31 -8q10 10 10 30l-10 439v182q-4 50 -4 70v69v80q0 174 6 305l8 285q0 6 -27 18l-16 4 q-109 -232 -199 -374v-9z" />
<glyph unicode="2" horiz-adv-x="397" d="M39 0l20 -4h31q10 -2 27 -2q10 -2 30 -2h27h47h39q22 -3 45 0q51 4 51 22q0 16 -12.5 25.5t-26.5 9.5q-13 0 -43 -6q-91 -14 -131 -14q-32 0 -55 6v35q0 128 21 292q26 202 65 285q91 179 125 277q47 136 47 303q-11 131 -40.5 190.5t-98.5 59.5q-93 0 -131 -134 q-32 -103 -35 -317v-20q0 -13 16 -13q8 3 15 17q10 27 10 51v14v2q4 46 4 60v2q1 8 2.5 32.5t2 31t2.5 25t3.5 26.5t4.5 23t7 27.5t9 26.5q19 47 42.5 78t45.5 31q6 0 18 -4h8q2 -2 7 -2q21 -3 38 -56q21 -65 23 -96v-2l4 -74q0 -149 -43 -276q-27 -81 -84 -185l-33 -65 q-33 -76 -53.5 -159t-25.5 -128.5t-11 -120.5q-2 -18 -2 -49l-6 -41q-6 -63 -6 -159v-23z" />
<glyph unicode="3" horiz-adv-x="452" d="M55 176q0 -40 29 -96q25 -65 70 -88q33 -17 90 -17q43 0 77.5 40.5t57.5 109.5q43 130 43 297q0 155 -33 311q-11 52 -35 92q-48 68 -118 68q-36 0 -66 -12l23 57q26 60 45 113q47 138 73 196q5 14 16.5 40.5t16.5 39.5l35 80v2q0 2 2 2q-2 31 -53 31h-29q-10 -2 -27 -2 h-75q-15 0 -25 2h-35q-27 0 -43 -4q-33 -8 -33 -23q0 -20 39 -20h39q27 0 37 2q25 0 37 2h35h80q1 0 -2 -13l-13 -26q-2 -5 -6 -15.5t-6 -15.5l-10 -20l-8 -17q-42 -112 -150 -377l-6 -18q-12 -28 -12 -37q0 -8 7 -17t17 -9q27 0 37 6q28 12 41 12h29q72 0 106 -137 q27 -108 27 -260q0 -176 -31 -295q-43 -154 -117 -154q-44 0 -77 33q-44 44 -86 164q-3 6 -6 -5q-1 -1 -1 -3q-6 -15 -6 -19z" />
<glyph unicode="4" horiz-adv-x="491" d="M18 322q10 -50 54 -50q35 0 73 9q41 8 91 8h63q36 0 59 -6v-21q4 -94 4 -131q0 -31 -4 -117q2 -5 15 -14q22 -15 28 2q9 21 9 59v27v29q-2 10 -2 30v56v26q0 21 -2 37v21q2 -2 24 -2q45 0 45 24q0 10 -13.5 15.5t-27.5 5.5q-21 0 -33 -6v18v170q0 58 -1 123.5t-1 83.5 q-2 23 -2 72v161q0 118 4 232v78v45q0 69 -2 92q-3 34 -6 49q-9 27 -31 27h-6q-2 -2 -6 -2l-12 -9l-23 -90q-36 -145 -182 -647q-22 -73 -115 -405zM78 354v15q41 137 55 192q33 124 137 483q43 145 84 314v4l8 16v-61v-43v-49q-2 -18 -2 -51v-46q-2 -35 -2 -104v-109v-258 v-61q-2 -18 -2 -57v-97v-47q0 -33 2 -51v-22q-31 6 -71 6h-70v-2q-6 -1 -20 -2t-21 -2q-45 -5 -88 -5q-10 0 -10 37z" />
<glyph unicode="5" horiz-adv-x="499" d="M49 295q3 -141 49 -238q51 -108 135 -108q127 0 185 215q39 155 39 407v23q0 64 -6 137q-14 168 -69 247t-175 79q-54 0 -103 -19v17q-2 8 -2 26v37v131q0 49 7 80q4 29 14 40t31 11q42 0 73 -8q30 -6 56 -6h32q25 0 31 2q10 0 14 2h15h61l4 -6q0 53 -32 53h-17 q-68 10 -125 10h-20h-35h-59q-34 0 -58 3q-26 0 -26 2v-2q2 -14 2 -48v-47q0 -49 -4 -151q0 -9 -3.5 -68.5t-3.5 -91.5v-12q6 -29 25 -29q14 0 16 2q1 1 4.5 2t4.5 2q2 2 6 2q65 21 118 21q77 0 129 -88q50 -89 50 -293v-43v-45.5v-43t-0.5 -46t-1.5 -42t-2 -44.5t-2.5 -40 t-3.5 -42.5t-5 -37.5t-6 -38q-39 -207 -160 -207q-69 0 -106 96q-31 72 -35 224v53q0 41 -24 41q-6 0 -9 -10q-8 -28 -8 -56v-33v-22z" />
<glyph unicode="6" d="M61 594q0 -297 25 -420q40 -215 147 -215q98 0 154 160q43 130 43 330v47q0 29 -2 45v2q-3 112 -12 207q-9 96 -53.5 173.5t-98.5 77.5q-38 0 -80 -49q-38 -41 -67 -104v10q19 150 63 295q29 96 96 248q6 16 11 22l4 7q14 20 14 28q0 11 -16 17q-21 0 -53 -50 q-30 -51 -33 -75l-21 -58q-60 -163 -92 -348v-2q-19 -141 -22 -180q-7 -93 -7 -168zM100 469v63q0 163 39 281q42 135 121 135q34 0 55 -30q42 -55 58 -183q14 -109 14 -215v-65v-11q0 -149 -20.5 -254.5t-77.5 -166.5q-25 -27 -53 -27q-71 0 -107 174q-29 139 -29 299z" />
<glyph unicode="7" d="M14 1409q0 -14 37 -14q6 0 14 1t18 2.5t15 2.5q20 4 25 4q94 -4 115 -4q31 -2 73 -2q18 -2 43 -2h25h12v-25q-17 -135 -45 -301q-26 -144 -63 -299v-16l-152 -13v-12q0 -19 31 -31h12q33 0 45 7v2h51v-25q-9 -46 -12 -82l-12 -72v-2l-19 -120q-10 -69 -24 -140 q-28 -117 -43 -274l41 -14l22 139l92 571v15q5 -5 35 -5h21h14h8q8 0 8 5q0 17 -3 27t-11.5 14t-15.5 5t-23 1h-6q-2 -2 -4 -2v24q2 12 9 53.5t13 69.5l27 162q7 44 28 174t31 199q-19 16 -55 16h-26q-21 0 -31 -2q-46 -4 -60 -4q-8 0 -25.5 1t-41.5 2.5t-39 2.5 q-10 2 -27 2h-18q-23 0 -38.5 -1t-33.5 -4.5t-27.5 -12.5t-9.5 -23z" />
<glyph unicode="8" horiz-adv-x="507" d="M47 436q0 -253 45 -360q46 -111 150 -111q132 0 172 96v5q28 33 43 141q8 76 8 162v53q0 141 -25 235q-27 100 -104 150v29q74 116 74 270q0 140 -21 235q-18 65 -65 98.5t-99 33.5q-42 0 -72.5 -35t-43.5 -103q0 -8 -3 -14q-2 -4 -2 -12v-4q-9 -47 -16 -107 q-6 -50 -6 -113v-20q0 -41 8 -80t14.5 -57.5t24.5 -63.5l14 -37v-20q-51 -64 -73 -141q-23 -85 -23 -230zM94 459q0 185 41 254q51 86 119 86q67 0 117 -86q49 -85 49 -277q0 -253 -60 -366v2q-13 -24 -30.5 -37t-32 -16t-35.5 -3q-70 0 -117 72q-49 70 -49 236v88v22 q-2 8 -2 25zM131 1067v37q0 108 7 165.5t34 108.5v8q46 46 70 46q15 0 45 -23q46 -36 60.5 -90.5t14.5 -149.5q0 -149 -22 -227q-26 -96 -92 -96q-69 0 -98 84q-19 56 -19 137z" />
<glyph unicode="9" horiz-adv-x="458" d="M47 946q0 230 43 369q47 152 133 166q151 -22 174 -357q9 -150 9 -278v-316q0 -223 -25 -350q-45 -211 -148 -211q-68 0 -108 56q-55 72 -55 245v9l8 4q23 0 33 -17l4 6v-2q3 -103 26 -172q27 -82 88 -82q62 0 101 123q32 109 32 316v18v25q-2 8 -2 34l2 158 q-61 -180 -165 -180q-70 20 -111 154q-39 128 -39 282zM92 969q0 -188 35 -301q35 -111 80 -111q22 0 48 23t48 69q52 105 49 314v127q0 43 -10 98v4q-2 2 -2 6v4q-14 84 -37 148q-31 77 -80 77q-54 0 -84 -65q-21 -47 -33 -137q-14 -85 -14 -256z" />
<glyph unicode="A" horiz-adv-x="405" d="M4 8l2 6q45 305 84 815l8 72q1 14 4 40t4 38l9 65q18 205 61 435q3 13 11 19q4 3 9 3q4 -1 8 -3q8 -4 13 -17v-2q25 -60 33 -117q3 -25 10 -70.5t10 -66.5l15 -88v-2q11 -65 24 -234q13 -150 21 -213v-2q9 -54 10 -70l6 -67l8 -92l58 -453l-9 -8v-4q-2 2 -10 2l-10 1v1v2 v2l-8 10q-41 238 -76 559l-4 21h-19q-22 0 -34 2h-37h-19q-22 0 -36 2q-18 2 -39 -2l-2 -25q-1 -23 -11 -114l-12 -115q-4 -28 -4 -45q-1 -7 -2 -22.5t-2 -22.5v-2q0 -15 -2 -21q-2 -8 -2 -22q-1 -13 -11 -92q-8 -60 -10 -97v-2q0 -29 -22 -35q-27 4 -27 31zM117 635 q22 -4 39 -2q14 2 32 2q38 0 56 -2q27 -3 49 2l-8 80v2q-6 77 -29 317q-2 19 -8.5 92.5t-11.5 114.5q-17 125 -35 184q-4 -16 -17 -106l-6 -66q-1 -11 -2 -30t-2 -29q-44 -399 -53 -498zM403 -8v-4v4z" />
<glyph unicode="B" horiz-adv-x="442" d="M59 1096q0 -90 2 -125v-109v-536q0 -148 2 -191q0 -48 5 -98q3 -20 9 -28.5t11.5 -9.5t20.5 -1h18q13 0 41 -4q48 -6 51 -6q13 0 41 4q73 17 105 80q38 71 38 252q0 158 -18 260.5t-63 167.5v24l20 35q24 40 36 93.5t13.5 95t1.5 131.5v30q0 199 -71 273q-47 49 -125 49 q-5 0 -25 -4h-49h-5q-18 0 -27.5 -0.5t-19.5 -6.5t-10 -18l-2 -276v-82zM100 838v166q0 104 2 159v144v75v21q-2 6 -2 18v23h19q14 6 39 6h14q10 0 14 2q96 -3 138 -113q26 -75 26 -247q0 -278 -92 -310v2q-20 4 -37 4q-14 -2 -53 -2h-23h-20q-11 0 -23 -4v21zM106 356v72 v242q0 10 3 22v23v18q25 15 73 15h29h18q9 -3 19 -3q36 0 60.5 -41.5t35.5 -109.5q16 -96 16 -252v-29q0 -157 -26 -219q-27 -65 -105 -65q-13 0 -45 4l-75 10v229v15v24q-3 15 -3 45z" />
<glyph unicode="C" horiz-adv-x="411" d="M37 897q0 -23 2 -33v-2l4 -293q2 -37 2 -110v-111q0 -159 43 -264q19 -51 48.5 -79t66.5 -28q75 0 121.5 72t46.5 189q0 15 -4 43q-5 20 -19 19.5t-16 -19.5q-1 -7 -2 -22t-2 -23v-3q-4 -75 -13 -96q-16 -56 -49.5 -86.5t-66.5 -30.5q-28 0 -56 31q-26 26 -39 107 q-10 59 -14 168q-8 139 -8 325q0 76 2 115v115v178q0 25 2 35v32v54q0 37 2 55q0 23 2 33v30v2q10 72 44.5 118t64.5 46q50 0 80 -69q18 -49 38 -150l17 -76q3 -8 16 -8h6q13 37 13 53q0 64 -33 158q-28 76 -70 115q-21 16 -65 16h-15q-135 -21 -141 -252q0 -35 -4 -129 q-4 -132 -4 -194v-31z" />
<glyph unicode="D" horiz-adv-x="450" d="M63 453q0 -83 3 -148q0 -100 4 -194v-60v-39v-14q-2 -2 -2 -6q1 1 20 4h41h41q16 0 20 4v-2q2 -2 21 -2q98 0 133 61v2q68 93 68 220v253v127q0 46 4 140v114v111q0 88 -2 139q-3 258 -138 305q-2 1 -14 5q-10 0 -10 2q-27 -2 -62 -2h-34h-21h-12h-37q-15 0 -20 -5 q6 -52 6 -125q-2 -47 -2 -182v-84q0 -31 2 -45v-51v-74q-9 -270 -9 -454zM111 516q0 57 2 90t2 78v129q0 51 2 78v80v108q0 205 -6 318v20q66 17 102 17h6q2 -2 6 -2h17q100 -25 123 -195q10 -98 10 -279q0 -100 -2 -151q-4 -102 -4 -152v-315q0 -111 -31 -193t-76 -100v-2 q-63 -10 -123 -10q-6 0 -22 4l-4 442v17q-2 6 -2 18z" />
<glyph unicode="E" horiz-adv-x="389" d="M63 578q0 -60 3 -119v-117q0 -107 2 -154q1 -16 1 -36q0 -41 -3 -99q0 -41 8 -49t20 -8h27q18 -2 34 -2t29 2q42 0 74 4h23l41 -2v2q0 39 -41 39q-22 0 -50 -4q-21 -6 -45 -6q-61 0 -84 6v127v80q-2 10 -2 24l2 172v25v43q-2 14 -2 41v78v59q0 39 2 57v19q46 4 76 4h21 q12 0 18 -2h29q18 3 18 6v4q-3 25 -24 25h-21q-38 0 -61 2t-60 2l4 26q0 99 4 295q3 144 3 293v25q49 6 139 6q15 0 47 -4q28 -4 49 -4t21 10q-4 15 -3 16q0 4 -12 13q-32 4 -53 4q-27 0 -47 -2t-76 -2h-31q-16 0 -22 2h-21q-14 0 -26 -4q-12 -9 -12 -23q0 -4 1 -8 q3 -9 3 -14v-11q0 -61 4 -139v-2q2 -20 2 -68q-2 -27 -2 -102v-45v-70q-2 -23 -2 -67q-5 -118 -5 -176v-172z" />
<glyph unicode="F" horiz-adv-x="358" d="M53 1468q0 -10 2 -22l6 -45q9 -79 9 -96v-39q-2 -12 -2 -35v-199q0 -46 2 -69v-70q0 -125 -4 -395q-5 -342 -5 -392q0 -26 1 -42.5t5 -35t13 -27.5t24 -9l7 69q-9 175 -9 324q2 53 2 158q0 27 5 155l2 35q4 2 18 2h27h84q18 0 22 2.5t4 14.5v10t-4 6t-12 4q-37 0 -55 -2 q-36 -4 -56 -4h-12q-10 0 -16 2v27q0 207 2 311v47q0 129 -13 293q10 -2 29 -2h27q47 0 71 4t41 4q32 0 97 -10q6 1 12 10t6 14q0 17 -37 17h-20q-8 -2 -21 -2h-31h-36q-14 -2 -37 -2h-23q-31 0 -45 2t-43 2q-37 0 -37 -15z" />
<glyph unicode="G" horiz-adv-x="380" d="M43 666q0 -35 4 -109q2 -39 2 -156v-41q0 -172 36.5 -264.5t115.5 -109.5h12q36 0 57 12q24 17 39 47q29 60 39 139q6 49 6 113q-2 18 -2 41v68q-2 23 -2 67q0 160 -28 207q-4 -2 -31 -2q-9 -1 -26.5 -2t-26.5 -2q-70 -8 -70 -35q0 -29 27 -29l26 13l60 14h2q0 -2 2 -2 q6 -3 9.5 -5t5.5 -3.5t2.5 -6.5t1 -8t0 -13t-0.5 -17v-23q8 -140 8 -158v-67q0 -31 2 -41v-27v-20q0 -64 -10 -115q-15 -75 -45 -96q-17 -12 -49 -12q-34 0 -55 24q-24 24 -39 100q-31 152 -31 570q0 101 4 211q1 11 2 33.5t2 31.5v23v53q-2 18 -2 51v88v60q0 15 4 51 q5 36 19 84q6 26 19.5 42.5t31.5 16.5q30 0 46.5 -21t43.5 -79l14 -33q21 -67 21 -98v-17q-2 -6 -2 -16v-27q5 -11 9 -15.5t21 -14.5q15 27 15 69q-13 106 -36.5 171t-68.5 98q-27 18 -63 18q-60 0 -78 -39q-4 -8 -7.5 -17t-6 -15.5t-5.5 -17.5t-4 -16.5t-3 -18t-2.5 -16.5 t-2.5 -18.5t-2 -17.5l-2 -64v-2l-8 -522v-67z" />
<glyph unicode="H" horiz-adv-x="444" d="M74 1051q0 -89 4 -215q8 -101 8 -258v-50q0 -57 2 -82q0 -21 1 -80.5t1 -99.5v-133v-39q0 -14 -1 -30.5t-1 -22.5q-2 -6 -2 -21q0 -49 16 -49q19 0 21 6l6 52q2 10 2 34v33q-2 35 -2 94v82q0 90 2 125v84v45q0 110 -8 217v19q3 16 6 16q6 0 12 2q34 6 68 6q23 -2 39 -2 h92v-32q10 -228 10 -377v-379q6 -6 31 -6q11 0 14 12q1 3 1.5 7.5t1 11.5t1.5 12v16v29q-2 10 -2 43v10q-2 18 -2 76v104v113v111q0 39 -1 82.5t-1 54.5q-2 14 -2 45v84q-4 24 -4 39v43v22q0 65 2 96v91v143q0 149 -18 244h-13q-20 0 -20 -29v-25q6 -117 6 -235 q0 -219 -6 -352v-13h-23q-6 -2 -24 -2q-47 0 -117 -4h-27q-10 -2 -26 -2v17q-4 20 -4 30v41v10q2 43 2 123v119v313q-7 13 -23 13q-18 0 -18 -2v-244q-4 -66 -4 -186z" />
<glyph unicode="I" horiz-adv-x="208" d="M80 1421q1 -26 2 -76.5t2 -70.5q0 -67 2 -90v-47v-23q0 -35 2 -51v-47v-973q0 -37 8 -45q7 -10 13 -10q10 0 16 12q12 24 12 70v39v12q0 91 -4 235q-1 24 -2 73.5t-2 74.5q-2 49 -2 153q0 101 4 261q2 37 2 106v98l-6 355q-9 12 -31 12q-16 0 -16 -68z" />
<glyph unicode="J" horiz-adv-x="352" d="M31 135q19 -69 51.5 -115.5t71.5 -46.5q12 0 24 4l55 54q28 57 31 164v286q0 78 -2 117q-1 20 -2 59t-2 58q-4 160 -4 233v119q0 82 2 117q4 132 4 231v19q9 6 19 6q8 0 12 -2q2 -1 6 -2t6 -2q16 3 16 20q0 29 -57 29h-12q-4 -2 -10 -2h-52q-12 0 -18 2h-18h-13 q-9 1 -18 1h-7q-12 -1 -19 -10t-7 -28q0 -12 12 -12h15q18 8 37 8q34 0 65 -10v-21q4 -144 4 -209v-86q-2 -35 -2 -88q-2 -31 -2 -88v-84q0 -62 4 -188q4 -118 4 -172v-185q0 -120 -10 -192q-12 -67 -59 -94v-2h-17v4q-30 26 -59 98v2q-6 25 -25 25q-14 0 -24 -17z" />
<glyph unicode="K" horiz-adv-x="477" d="M63 1546q5 -92 5 -114v-127v-93v-84q-2 -20 -2 -40t2 -39l2 -256q3 -31 3 -55q0 -12 -1 -23q-2 -31 -2 -76q0 -147 4 -283q0 -77 4 -147q4 -78 4 -121v-39q0 -31 -2 -51q2 -6 37 -10q10 7 10 8q0 76 -4 154q-2 12 -2 36v29v100q0 32 -1 73.5t-1 57.5q-2 18 -2 62v43 q0 40 4 158v47q-2 14 -2 45v6q6 12 17 33.5t14 29.5q11 22 18 29v-10q41 -159 104 -318q54 -144 84 -264q16 -69 43 -166q7 -26 22.5 -79.5t22.5 -79.5v-5q0 2 4.5 6.5t8.5 4.5q16 0 18 -2q0 71 -90 391q-27 98 -82 237q-2 6 -11.5 30t-12.5 32t-11 30t-11.5 34t-10.5 34 t-11.5 38.5t-10 39.5t-10.5 46t-9 48v15q20 41 92 213q60 151 86 204q48 98 86 133v9q0 10 -12 22q-41 -3 -68 -55l-33 -76q-6 -14 -37 -85.5t-42 -96t-38 -84.5t-43.5 -93t-39.5 -76.5t-43 -76.5v19q-4 136 -4 241v131q-3 64 -3 119v64q-2 18 -2 57q-3 16 -22 16h-19z" />
<glyph unicode="L" horiz-adv-x="374" d="M47 1466q0 -25 6 -49v-2q1 -4 2 -11.5t2 -10.5q2 -6 2 -35v-12q4 -114 4 -162v-140q0 -52 -1 -128t-1 -107q-4 -136 -4 -217v-103q-2 -30 -1.5 -62t1.5 -67q2 -49 2 -118v-41q0 -85 4 -199h54h35q12 -2 36 -2h144q37 0 47 2q14 3 14 14q0 24 -12 33h-19q-29 0 -79 -4 q-41 -6 -82 -6h-64q-4 0 -6 -2t-4 -2q-9 0 -16 10q-7 11 -7 41v225q0 42 2 60v59q0 76 -2 113q-4 74 -4 112q0 82 4 222q5 175 5 206q0 67 -5 297v19q0 24 -0.5 34t-3.5 24.5t-10 20t-20 5.5q-20 0 -23 -17z" />
<glyph unicode="M" horiz-adv-x="534" d="M53 1376q10 -161 13 -282q2 -31 2 -97v-108v-328v-88q0 -53 -2 -80q-3 -41 -3 -90v-108q0 -53 5 -195q4 -4 10 -6q9 -4 22 0q11 4 11 12v4q-2 2 -2 4v9l-7 129v77q0 47 2 70v16q5 128 5 154v434q0 216 -9 498v4l19 -88q5 -43 12 -82l16 -78q32 -161 80 -340v-2 q24 -122 58 -145q15 26 27.5 66t18.5 70t15 85q14 97 25 139q21 129 65 307l-4 -231v-43q-2 -14 -2 -39v-72q0 -29 2 -43v-43v-401l12 -471q0 -1 4.5 -3t11 -3.5t11.5 -1.5q4 0 12 4q7 5 9 12v23q0 7 -5 47q-6 99 -6 258v278v64q-2 18 -2 57v102v27q-2 6 -2 21v39 q0 51 4 145v72q0 24 2 36v35l-8 277q-10 10 -39 10q-9 0 -12 -20q0 -40 -23 -111q-29 -68 -43 -172q0 -19 -2 -23q-10 -61 -24 -133q-16 -79 -39 -176l-12 -72v-2l-2 -6v2l-62 273q-9 44 -12 67l-8 37q-2 8 -2 17q-2 2 -2 6v2q-14 71 -27 110v2l-27 133q-10 44 -16 52 q-9 12 -21 12h-12q-12 -3 -16 -6l-6 -8q-1 -1 -3.5 -4.5t-3.5 -4.5q-3 -6 -6 -6q-3 -3 0 -10v-25v-26q-2 -10 -2 -25z" />
<glyph unicode="N" horiz-adv-x="522" d="M55 1477q2 15 11 15q2 0 4 -1q33 0 47 -39q8 -44 39 -139q17 -54 47 -123v-2q19 -27 26 -43q3 -7 21 -37q14 -29 36 -80.5t23 -54.5l56 -127l43 -92v8q-1 57 -2.5 171.5t-2.5 172.5l-6 342q1 16 3 22.5t10 10.5t24 4q8 -5 8 -12q0 -38 2 -56v-59q5 -240 5 -342 q0 -92 2 -135v-129v-226q0 -86 4 -176q0 -47 4 -117q8 -57 8 -137v-30q0 -58 -18 -74q-32 0 -35 8l2 39q2 20 2 63v62v57q0 33 -2 51q0 8 -4 58q-9 163 -9 274q0 38 -22 84q-21 50 -62 139q-53 108 -53 109q-89 191 -162 403v-6q-2 -39 -2 -121v-110v-72v-110q0 -74 2 -111 q5 -352 5 -453q0 -176 8 -272v-29q0 -37 -13 -55l-2 -2q-8 -4 -18 -4q-14 0 -14 14v133q-2 37 -2 111v168q0 147 -7 373q-2 51 -2 165v189v168q0 44 -4 162z" />
<glyph unicode="O" horiz-adv-x="671" d="M29 750q0 -210 24 -361q25 -181 94 -301q35 -54 85.5 -91.5t107.5 -37.5q35 0 86 23q53 39 84 80.5t63 109.5v2q74 201 74 434q-4 54 -4 80v74q0 149 -8 256q-12 127 -39 244q-21 112 -113 188q-5 2 -19.5 10.5t-20.5 11.5t-19.5 9.5t-21.5 9t-19.5 6t-21.5 5t-21 1.5 q-62 0 -107 -22q-70 -34 -114 -140q-78 -207 -90 -591zM70 680v33q4 46 4 57q-3 23 0 57q2 69 20 217q18 182 57 281.5t117 128.5q30 12 64 12q66 0 119 -41q93 -61 137 -315l8 -59l4 -131q4 -46 4 -68q-2 -23 -2 -70v-155v-68q0 -21 -4 -61q-11 -134 -43 -232 q-41 -115 -78.5 -175t-99.5 -81l-35 -4q-2 -2 -7 -2q-3 0 -7 1q-10 2 -13 2t-12.5 4t-13.5 6.5t-14 7.5t-15 8q-37 22 -80 90q-75 125 -90 303v2q-20 180 -20 252z" />
<glyph unicode="P" horiz-adv-x="421" d="M57 987q0 -180 2 -256q2 -78 2 -201v-92v-18q-2 -6 -2 -19q0 -29 2 -43t2 -51l5 -289q0 -22 32 -22l9 8l2 96v95v45q0 31 -2 45v288q62 -16 84 -16q76 0 131 74q71 95 71 278v60q0 92 2 112v43v23q0 170 -39 246q-33 65 -106 82q-28 4 -41 4t-49 -4q-32 -7 -43 -7h-19 q-41 0 -43 -8v-55q0 -23 2 -37v-39v-145v-97q-2 -33 -2 -100zM102 911v512l68 9q17 0 27 2q8 2 22 2q85 0 109 -82t24 -254v-15v-10q-4 -32 -4 -67v-35v-17q0 -160 -26 -237q-43 -117 -138 -117q-32 0 -73 27l-2 67q-1 18 -2.5 53.5t-2.5 53.5q-3 47 -3 79q0 16 1 29z" />
<glyph unicode="Q" horiz-adv-x="700" d="M18 682v72q0 79 7 127l8 118q0 11 2 15t2 14q28 234 80 340q64 137 209 145h10q160 0 258 -188q85 -168 98 -391q2 -14 2 -43v-45l-4 -238q-12 -229 -76 -409l-8 -21q-4 -8 -4 -12q-4 -14 -10 -19v-22q52 -79 72 -131v-6q-4 -4 -19 -4q0 -4 -7.5 -7.5t-10.5 -3.5 q-1 0 -11 17q-15 24 -20 37q-25 49 -39 59v-8q-33 -51 -86.5 -84t-116.5 -33h-12q-164 0 -246 201q-54 129 -67 346v2q-1 6 -2 17.5t-2 15.5q-5 35 -5 67q-2 16 -2 72zM63 739q0 -21 3 -55v-88v-2q16 -277 79 -422q72 -170 201 -170q57 0 101 26.5t85 92.5v20 q-5 10 -18 33.5t-20 36.5q-52 80 -82 139q-17 31 -17 39v6l2 2q3 0 6 17q3 14 7 14l2 -2v-6q77 -86 153 -242l4 6q1 1 3 4.5t3 4.5l13 34q20 58 33 142t16.5 136.5t9.5 156.5v2q0 10 2 14v12v27q0 16 2 24v21v41q0 167 -37 334q-38 195 -145 282q-74 57 -154 57 q-19 0 -39 -3l-8 -3q-44 -28 -73 -57t-50 -78q-25 -29 -51 -215q-14 -101 -28 -313v-10v-9q-3 -6 -3 -16v-33zM664 -6l2 2l2 -2q0 -6 -2 -6z" />
<glyph unicode="R" horiz-adv-x="444" d="M51 1440l2 -146q2 -27 2 -84v-88v-166v-84q-2 -29 -2 -86v-157q5 -39 5 -77q0 -16 -1 -32q-1 -15 -1 -32q0 -34 3 -76v-2q0 -40 2 -58v-59v-295q2 -6 43 -6q7 11 7 49v14q-3 42 -3 70q0 14 1 25q0 44 -3 100l-6 354q64 -12 95 -12q16 0 28 4l58 -231q1 -4 7.5 -32.5 t12.5 -51.5q25 -127 66 -236q15 -49 28 -49q18 0 21 6v8v6q-2 0 -2 4v9q-24 100 -64 241v2q-40 146 -69 269q-11 50 -11 55q0 17 13 20q39 15 67 99q25 77 25 147v12q2 37 2 82v58q-2 41 -1.5 73.5t1.5 55.5q0 43 -6 80l-6 37q-9 61 -37 133q-18 34 -41.5 51t-71.5 29l-43 4 h-14q-37 0 -47 2t-37 2q-20 0 -23 -41zM96 1087v107q0 39 2 59v58q3 21 0 43q-2 12 -2 43v26q15 15 47 15q15 0 39 -4t29 -4l43 -23q56 -27 74 -176q1 -4 1.5 -9.5t1 -14t1.5 -15.5q0 -15 1 -63.5t1 -79.5v-91q0 -147 -25 -221q-33 -98 -114 -98h-27q-26 4 -33 6l-33 8v133 l-4 181v61q-2 18 -2 59z" />
<glyph unicode="S" horiz-adv-x="391" d="M33 387q0 -144 16 -231q18 -94 64.5 -141.5t105.5 -47.5q24 0 47 10q39 16 74 91q29 61 39 133q2 6 2 24v23v18q0 104 -39 240l-8 33q-22 82 -107 247l-28 52l-31 59q-26 46 -40 76t-27 80.5t-13 105.5v8q4 94 16 154q16 74 48 106q17 25 41 25q57 0 98 -102v-2 q24 -93 35 -195q0 -2 8 -2q22 0 22 16v11q0 174 -67 278q-33 41 -94 41h-7q-2 -2 -4 -2h-8q-30 -4 -44 -13.5t-28 -33.5q-27 -48 -46 -126t-19 -146q0 -65 16 -140q28 -92 97 -209q32 -55 71 -145v-2q1 -3 4.5 -10.5t5.5 -12.5q3 -15 13 -32q26 -66 41.5 -111t31 -115 t15.5 -127v-43q0 -12 -4 -32q-10 -87 -48 -136t-83 -49q-20 0 -43 23q-28 15 -45 76q-16 57 -25 114q-10 72 -10 133v58q0 12 2 18v17v49q-9 12 -25 12q-7 0 -10 -12l-6 -27q-4 -40 -4 -55v-31z" />
<glyph unicode="T" horiz-adv-x="370" d="M-10 1470q1 -18 5 -23t15 -5h19l71 4h58q4 -16 4 -31v-37v-143v-86q-2 -35 -2 -92v-215q-1 -30 -1 -64q0 -78 5 -174q4 -168 4 -237l2 -125q0 -101 2 -136q0 -36 -4 -102l10 -18h6q0 -2 2 -2h2q25 25 25 92v450q-12 189 -12 668v119q0 37 4 119v16q30 -4 45 -2q22 3 43 0 l94 -4v8l-2 23q-2 14 -61 14q-52 -6 -107 -6h-115q-29 0 -39 2h-34q-36 0 -39 -13z" />
<glyph unicode="U" horiz-adv-x="479" d="M57 610q0 -16 2 -24v-27v-39q0 -242 37 -366q54 -195 183 -195q43 0 75 29q56 54 72 178q12 120 12 244q-2 39 -2 106v172q0 78 -2 121q-4 82 -4 123v350q0 23 2 33v33q0 40 -6 77q-6 35 -25 35l-8 -2q-1 0 -4.5 -15t-3.5 -20v-2q-2 -6 -2 -16v-19q0 -23 4 -73v-15 q4 -70 4 -79v-52v-24q-2 -10 -2 -31v-31q0 -61 2 -92v-94v-479q0 -151 -12 -240q-17 -127 -70 -149l-16 -9q-4 -4 -10 -4h-13q-26 0 -41.5 7t-33.5 30l-17 19q-42 48 -57 159q-15 108 -15 228v61q2 34 2 72.5t-2 81.5q-2 55 -2 151v242q0 123 2 182q3 89 3 183v22 q0 5 -10.5 11.5t-20.5 6.5q-9 0 -12 -8q-7 -14 -7 -47v-18v-78q0 -59 2 -88v-90v-54q0 -149 -2 -217t-2 -206v-54z" />
<glyph unicode="V" horiz-adv-x="448" d="M-12 1470q0 -8 2 -10v-12q4 -78 18 -160q27 -158 51 -325v-2q5 -34 23 -132l20 -131q15 -141 41 -299l54 -317v-2l12 -88v-2l4 4q3 -6 27 -6q16 29 22 73l25 168q4 28 12 83t12 83q5 37 16.5 110.5t16.5 110.5q14 104 33 224l33 227l36 231q0 7 3 13q2 4 2 12v2 q1 11 4 34t4 34q1 10 4 34t4 39q0 4 -25 4h-16l-82 -552v-3l-18 -133q-3 -26 -10.5 -71.5t-10.5 -63.5l-39 -254q-8 -55 -22.5 -148.5t-16.5 -107.5q-9 27 -12 58q-1 11 -4 31t-4 28l-6 55q-1 7 -11 58q-12 58 -14 92l-12 96l-6 51q-7 70 -23 174l-22 144q-11 66 -11 71 q-1 13 -4 34.5t-4 27.5q-7 84 -39 235q-13 54 -26 162q-10 16 -23 16h-18z" />
<glyph unicode="W" horiz-adv-x="780" d="M-4 1440v24q0 6 12 6q24 0 27 -8l24 -202l17 -187q2 -33 10 -94q1 -15 4 -46.5t4 -47.5l10 -92q11 -117 39 -306q18 -105 23 -145q15 -140 31 -219q24 138 57 397q3 23 8 67.5t8 65.5l19 140v2q9 66 10 86q2 21 10 73l21 164l6 43q1 7 2 20.5t2 20.5l12 94l13 86 q4 11 34 11h11q2 -2 6 -2q5 -5 8 -31l6 -53q1 -5 2 -18t2 -19l1 -13q0 1 -1 3l23 -166q6 -40 20 -170l25 -193q13 -99 16 -135q10 -109 33 -285q1 -6 27 -180q29 181 38 260l31 256l29 217l18 158l19 160q3 40 12 84q8 59 10 84v10l4 33q4 50 13 59v4q6 14 26 14h6 q2 -2 4 -2q7 -7 7 -10q-2 -2 -2 -6q-2 -2 -2 -10v-15l-13 -98q-1 -7 -2 -23t-2 -24l-6 -49l-45 -359q-2 -33 -10 -86q-10 -69 -11 -79l-12 -99q-9 -50 -12 -104q-8 -73 -49 -332v-4q0 -8 -2 -10t-2 -10q2 6 1 -1l-1 -12q-1 -7 -4.5 -21.5t-4.5 -21.5v-2q-1 -9 -4 -30t-4 -33 q-6 -33 -12 -33q-3 0 -6 -6l-6 -17h-9q-6 0 -16 13q-5 14 -12 43q-13 65 -23 159q-3 28 -10 82.5t-10 81.5l-12 115q-5 52 -25 190q-2 25 -10 70q-9 35 -15 86l-51 412q-24 -155 -37 -271q-5 -43 -16 -136t-16 -142l-39 -314q0 -4 -4 -24v-2q-19 -146 -31 -215 q-13 -63 -27 -101q-15 -43 -31 -43q-25 20 -43 158v2l-6 39q-25 157 -37 258q-24 151 -59 481q-38 355 -47 500q-2 6 -2 25z" />
<glyph unicode="X" horiz-adv-x="385" d="M-8 -20q0 6 2 8v8v2l6 31q1 4 2 13.5t2 14.5l6 37l13 60q14 79 45 194l26 113q4 19 12 41q7 30 15 55q37 101 41 166v6l-43 180q-8 41 -25.5 118.5t-21.5 96.5q-32 143 -47 230q-10 44 -11 55q-9 39 -14 55q3 13 25 13h8q4 0 6 -2l41 -179q56 -251 100 -460q5 -31 10 -45 v4q98 429 103 454q32 164 35 185q3 29 28 41l13 4q10 0 10 -4v-15l-43 -188l-37 -168l-33 -148q-35 -155 -47 -229v-8q22 -102 60 -244q23 -78 96 -371v-2q9 -26 12 -53q1 -9 4 -25t4 -22v-2q-4 -4 -18 -4q-7 0 -19 4l-67 279l-17 63q-36 126 -61 211q-8 27 -27 72v-4 l-14 -50q-13 -49 -37 -131q-31 -104 -45 -170l-63 -290q-2 2 -13 2h-14q-6 0 -8 -2zM379 1460q2 2 2 4v-8q-2 2 -2 4zM381 1464q-2 0 -2 1t2 3v-4zM395 2l2 -2q-2 0 -2 2z" />
<glyph unicode="Y" horiz-adv-x="385" d="M2 1468q0 -13 6 -34q1 -8 4 -22t4 -19l9 -39q49 -252 90 -426q33 -125 55 -244v-156v-43q-2 -14 -2 -45v-2q-2 -14 -2 -45v-51v-20v-39q-2 -18 -2 -82q-1 -19 -2 -70t-2 -76q0 -67 16 -67q21 0 31 10v-6q8 123 8 342q0 57 -4 205q-2 23 -2 71v70v4q28 128 43 205l47 215 q3 16 10 45t10 45t10.5 45.5t10.5 42.5q24 84 31 117q10 58 10 65t-2 10t-12 3q-28 0 -39 -43q-10 -71 -35 -189q-9 -41 -23 -103t-37.5 -163t-42.5 -184q-17 85 -45 211q-7 31 -23 99.5t-24 104.5l-59 265q-6 6 -14 6q-23 0 -23 -13z" />
<glyph unicode="Z" horiz-adv-x="507" d="M10 18q0 9 6 21q1 4 4.5 12t4.5 12l6 17q73 212 131 418l18 65q7 24 52 177t69 231l74 233l31 101q22 68 32 94v26q-15 9 -28 9h-17h-10q-4 -2 -10 -2h-23q-32 0 -82 -5q-40 -4 -53 -4h-133q-25 0 -25 25v14q2 15 31 15h21q18 0 28 -2q25 -5 33 -5h20q7 0 13 3h12h248 l2 2q12 0 21.5 -9.5t9.5 -25.5q0 -9 -2 -17q-13 -51 -13 -53q-1 -3 -1 -6l-1 -4q-9 -31 -37 -96q-31 -61 -59 -187q-32 -130 -70 -217v-2q-34 -85 -59 -176l-49 -182l-43 -156l-45 -166l-4 -20q-10 -38 -27 -82l-18 -41q18 0 28 2q8 2 23 2q17 0 53 4q18 2 55 2h56 q18 -2 55 -2h121q4 0 6 2h4q23 0 29 -14v-23l-11 -4q-48 -6 -59 -6q-10 -2 -25 -2h-16q-49 0 -96 6q-66 4 -96 4h-15q-34 0 -71 -6q-33 -8 -72 -8q-27 0 -27 26z" />
<glyph unicode="&#x2000;" horiz-adv-x="773" />
<glyph unicode="&#x2001;" horiz-adv-x="1546" />
<glyph unicode="&#x2002;" horiz-adv-x="773" />
<glyph unicode="&#x2003;" horiz-adv-x="1546" />
<glyph unicode="&#x2004;" horiz-adv-x="515" />
<glyph unicode="&#x2005;" horiz-adv-x="386" />
<glyph unicode="&#x2006;" horiz-adv-x="257" />
<glyph unicode="&#x2007;" horiz-adv-x="257" />
<glyph unicode="&#x2008;" horiz-adv-x="193" />
<glyph unicode="&#x2009;" horiz-adv-x="309" />
<glyph unicode="&#x200a;" horiz-adv-x="85" />
<glyph unicode="&#x202f;" horiz-adv-x="309" />
<glyph unicode="&#x205f;" horiz-adv-x="386" />
<glyph unicode="&#x25fc;" horiz-adv-x="1024" d="M0 0z" />
</font>
</defs>
</svg>
